<svg width="25" height="26" viewBox="0 0 25 26" fill="none" xmlns="http://www.w3.org/2000/svg">
<path d="M2.77778 26H0V24.6316C0.00612311 19.3438 4.35533 15.0587 9.72222 15.0526H15.2778C20.6447 15.0587 24.9939 19.3438 25 24.6316V26H22.2222V24.6316C22.2176 20.8547 19.1112 17.794 15.2778 17.7895H9.72222C5.88881 17.794 2.78237 20.8547 2.77778 24.6316V26ZM12.5 13.6842C8.66469 13.6842 5.55556 10.6209 5.55556 6.84211C5.55556 3.06331 8.66469 0 12.5 0C16.3353 0 19.4444 3.06331 19.4444 6.84211C19.4399 10.619 16.3334 13.6797 12.5 13.6842ZM12.5 2.73684C10.1988 2.73684 8.33333 4.57483 8.33333 6.84211C8.33333 9.10938 10.1988 10.9474 12.5 10.9474C14.8012 10.9474 16.6667 9.10938 16.6667 6.84211C16.6667 4.57483 14.8012 2.73684 12.5 2.73684Z" fill="#56CCF2"/>
</svg>
