<svg width="33" height="33" viewBox="0 0 33 33" fill="none" xmlns="http://www.w3.org/2000/svg">
<rect x="0.5" y="0.5" width="32" height="32" rx="9.5" fill="#56CCF2" stroke="#F1F4F7"/>
<path fill-rule="evenodd" clip-rule="evenodd" d="M11.88 20.13C11.88 19.6309 12.2884 19.2225 12.7875 19.2225C13.2866 19.2225 13.695 19.6309 13.695 20.13C13.695 20.6292 13.2866 21.0375 12.7875 21.0375C12.2884 21.0375 11.88 20.6292 11.88 20.13ZM16.4175 19.2225H20.0475C20.5467 19.2225 20.955 19.6309 20.955 20.13C20.955 20.6292 20.5467 21.0375 20.0475 21.0375H16.4175C15.9184 21.0375 15.51 20.6292 15.51 20.13C15.51 19.6309 15.9184 19.2225 16.4175 19.2225ZM21.8625 23.76H10.9725C10.4725 23.76 10.065 23.3526 10.065 22.8526V17.4076H22.77V22.8526C22.77 23.3526 22.3625 23.76 21.8625 23.76ZM10.9725 11.055H11.88V11.9625C11.88 12.4617 12.2884 12.87 12.7875 12.87C13.2866 12.87 13.695 12.4617 13.695 11.9625V11.055H19.14V11.9625C19.14 12.4617 19.5484 12.87 20.0475 12.87C20.5466 12.87 20.955 12.4617 20.955 11.9625V11.055H21.8625C22.3625 11.055 22.77 11.4625 22.77 11.9625V15.5925H10.065V11.9625C10.065 11.4625 10.4725 11.055 10.9725 11.055ZM21.8625 9.24005H20.955V8.33255C20.955 7.83342 20.5466 7.42505 20.0475 7.42505C19.5484 7.42505 19.14 7.83342 19.14 8.33255V9.24005H13.695V8.33255C13.695 7.83342 13.2866 7.42505 12.7875 7.42505C12.2884 7.42505 11.88 7.83342 11.88 8.33255V9.24005H10.9725C9.4715 9.24005 8.25 10.4615 8.25 11.9625V22.8525C8.25 24.3536 9.4715 25.575 10.9725 25.575H21.8625C23.3635 25.575 24.585 24.3536 24.585 22.8525V11.9625C24.585 10.4615 23.3635 9.24005 21.8625 9.24005Z" fill="white"/>
</svg>
