<svg width="35" height="27" viewBox="0 0 35 27" fill="none" xmlns="http://www.w3.org/2000/svg">
<path opacity="0.4" d="M29.5 19C32.5376 19 35 17.433 35 15.5C35 13.567 32.5376 12 29.5 12C26.4624 12 24 13.567 24 15.5C24 17.433 26.4624 19 29.5 19Z" fill="#D6D8E5"/>
<path d="M35 5H25C25 5 25.0342 12.7476 25.0084 14.2177C25.0018 14.2838 24.9998 14.3502 25.0026 14.4165C25.0026 14.4304 25.0026 14.441 25 14.4477H25.0042C25.0436 15.0941 25.5297 15.7339 26.4645 16.2271C28.4167 17.2572 31.5843 17.2572 33.5339 16.2295C34.4687 15.7363 34.9527 15.0965 34.9942 14.4501H35V5Z" fill="#56CCF2"/>
<path d="M30 9C32.7614 9 35 7.433 35 5.5C35 3.567 32.7614 2 30 2C27.2386 2 25 3.567 25 5.5C25 7.433 27.2386 9 30 9Z" fill="#8C50FF"/>
<path d="M34.8801 5.87095C34.8312 6.04878 34.7692 6.21916 34.6951 6.3794C34.5471 6.69616 34.3658 6.98043 34.157 7.22275C34.0954 7.298 34.0303 7.37054 33.9613 7.44172C33.824 7.58419 33.6806 7.71483 33.5318 7.83289C33.4995 7.85865 33.4677 7.88373 33.4339 7.90814C33.3679 7.95899 33.2994 8.00848 33.2294 8.05525C33.0626 8.16847 32.887 8.27287 32.7074 8.36575C32.6404 8.401 32.5729 8.43354 32.5039 8.46608C32.3312 8.54675 32.1536 8.61726 31.9716 8.67963C31.9105 8.70132 31.8488 8.72166 31.7867 8.73996C31.6086 8.7951 31.4283 8.8403 31.2456 8.87555C31.1835 8.88843 31.1218 8.90064 31.0597 8.9108C30.8807 8.94109 30.7013 8.96368 30.5216 8.9786C30.4599 8.98334 30.3983 8.98809 30.3357 8.99012C30.1556 9.00097 29.9751 9.00233 29.7975 8.9969C29.7354 8.9969 29.6737 8.99216 29.6116 8.98809C29.4306 8.97656 29.2501 8.95826 29.0705 8.93046C29.0084 8.92097 28.9463 8.91148 28.8846 8.89928C28.7026 8.86674 28.5221 8.82471 28.344 8.77522C28.2819 8.75827 28.2198 8.73929 28.1586 8.7203C27.9743 8.662 27.7941 8.59421 27.618 8.51692C27.5559 8.48981 27.4933 8.46133 27.4321 8.43218C27.2457 8.3427 27.0647 8.24236 26.891 8.13118C26.8284 8.09186 26.7663 8.05051 26.7061 8.0078C26.6236 7.94995 26.543 7.88961 26.4644 7.82679C26.3588 7.74205 26.2594 7.65527 26.165 7.56443C26.1004 7.50409 26.0383 7.44104 25.9791 7.37664C25.7774 7.16248 25.5957 6.9145 25.438 6.63837C25.3702 6.51801 25.3085 6.39114 25.2536 6.25873C24.6783 4.86829 25.0819 3.27582 26.4644 2.16944C28.4164 0.610188 31.5822 0.610188 33.5352 2.16944C34.0846 2.60874 34.4784 3.12397 34.7191 3.67377C34.7831 3.81922 34.8375 3.97237 34.8815 4.13137C35.04 4.69058 35.0395 5.31226 34.8801 5.87095Z" fill="#EF990F"/>
<path d="M35 4L34.999 5.30362L34.3788 6L34 4.8045L35 4Z" fill="#EF990F"/>
<path d="M28 6V7C27.3298 6.99336 26.6596 6.98592 26 6.97847V6H28Z" fill="#DD8910"/>
<path d="M30 6V8.98623C29.6684 8.9919 29.3368 8.99757 29 9V6.00243L30 6Z" fill="#DD8910"/>
<path d="M30 6C32.7614 6 35 4.65685 35 3C35 1.34315 32.7614 0 30 0C27.2386 0 25 1.34315 25 3C25 4.65685 27.2386 6 30 6Z" fill="#FCA70D"/>
<path d="M32.8945 9.03333C31.0199 9.72747 27.9806 9.72747 26.106 9.03333L26.0182 9.00097L26 9.00809V11.4387C26.0343 11.4523 26.0696 11.4659 26.106 11.4792C27.9806 12.1736 31.0199 12.1736 32.8945 11.4792C32.9309 11.4659 32.9652 11.452 33 11.4381V9.00744L32.9813 9C32.9531 9.01165 32.9243 9.02233 32.8945 9.03333Z" fill="#ECE8F9"/>
<path d="M30 9.51068C28.6192 9.63243 27.1601 9.46331 26 9V9.45099C27.1601 9.91335 28.6208 10.0834 30 9.96215V9.51068Z" fill="#FFC618"/>
<path d="M30 10.5107C28.6192 10.632 27.1601 10.4633 26 10V10.451C27.159 10.9134 28.6192 11.0834 30 10.9621V10.5107Z" fill="#FFC618"/>
<path d="M11 27C15.4183 27 19 25.2091 19 23C19 20.7909 15.4183 19 11 19C6.58173 19 3 20.7909 3 23C3 25.2091 6.58173 27 11 27Z" fill="#D9DCE8"/>
<path d="M11 25C15.4183 25 19 22.9853 19 20.5C19 18.0147 15.4183 16 11 16C6.58173 16 3 18.0147 3 20.5C3 22.9853 6.58173 25 11 25Z" fill="#EFF1F9"/>
<path d="M5.78658 24L5 23.4998L15.2134 17L16 17.5002L5.78658 24Z" fill="#D3D6E2"/>
<path d="M6 9.21464L12.6851 13L16 6.67454L9.73505 3L6 9.21464Z" fill="#D1D5DB"/>
<path d="M1 5.98732L6.24334 9L10 3.37398L4.11125 0L1 5.98732Z" fill="#56CCF2"/>
<path d="M3 6C4.65686 6 6 4.65686 6 3C6 1.34315 4.65686 0 3 0C1.34315 0 0 1.34315 0 3C0 4.65686 1.34315 6 3 6Z" fill="#56CCF2"/>
<path d="M9.95164 7.26431C10.863 5.68572 10.8628 3.97933 9.95118 3.45298C9.03953 2.92664 7.56164 3.77966 6.65024 5.35825C5.73884 6.93685 5.73904 8.64324 6.6507 9.16958C7.56235 9.69593 9.04024 8.84291 9.95164 7.26431Z" fill="#D1D5DB"/>
<path d="M14.5 13C16.433 13 18 11.6568 18 10C18 8.34314 16.433 7 14.5 7C12.567 7 11 8.34314 11 10C11 11.6568 12.567 13 14.5 13Z" fill="#D1D5DB"/>
</svg>
