<svg width="20" height="25" viewBox="0 0 20 25" fill="none" xmlns="http://www.w3.org/2000/svg">
<path fill-rule="evenodd" clip-rule="evenodd" d="M0.046875 21.6V19.6V18.6V2.6C0.046875 1.16863 1.2155 0 2.64687 0H17.6469C18.0832 0 18.4935 0.148068 18.7961 0.450736C19.0988 0.753403 19.2469 1.16365 19.2469 1.6V19.1C19.2469 19.3863 19.1488 19.6716 18.9336 19.8868C18.7185 20.1019 18.4332 20.2 18.1469 20.2C17.3782 20.2 16.7469 20.8314 16.7469 21.6C16.7469 22.3686 17.3782 23 18.1469 23C18.4782 23 18.7469 23.2686 18.7469 23.6C18.7469 23.9314 18.4782 24.2 18.1469 24.2H2.64687C1.2155 24.2 0.046875 23.0314 0.046875 21.6ZM2.64687 23H15.958C15.698 22.5954 15.5469 22.1147 15.5469 21.6C15.5469 21.0853 15.698 20.6046 15.958 20.2H2.64687C1.87825 20.2 1.24688 20.8314 1.24688 21.6C1.24688 22.3686 1.87825 23 2.64687 23Z" fill="#00AF54"/>
<path d="M9.34766 6.58557V12.5856" stroke="white" stroke-width="1.2" stroke-miterlimit="10" stroke-linecap="round" stroke-linejoin="round"/>
<path d="M6.34766 9.58557H12.3477" stroke="white" stroke-width="1.2" stroke-miterlimit="10" stroke-linecap="round" stroke-linejoin="round"/>
</svg>
