<svg width="26" height="25" viewBox="0 0 26 25" fill="none" xmlns="http://www.w3.org/2000/svg">
<path d="M13.8854 1.3C13.3854 0.9 12.6854 0.9 12.1854 1.3L1.18536 11.4C0.785358 11.8 1.08536 12.5 1.58536 12.5H3.38536V22.8C3.38536 23.4 3.88536 24 4.58536 24H21.4854C22.0854 24 22.6854 23.5 22.6854 22.8V12.5H24.4854C25.0854 12.5 25.2854 11.8 24.8854 11.4L13.8854 1.3ZM15.6854 17.3C15.6854 17.6 15.3854 17.9 15.0854 17.9H10.9854C10.6854 17.9 10.3854 17.6 10.3854 17.3V13.2C10.3854 12.9 10.6854 12.6 10.9854 12.6H15.0854C15.3854 12.6 15.6854 12.9 15.6854 13.2V17.3Z" fill="#00AF54" stroke="#00AF54" stroke-miterlimit="10" stroke-linecap="round" stroke-linejoin="round"/>
</svg>
