<svg width="21" height="26" viewBox="0 0 21 26" fill="none" xmlns="http://www.w3.org/2000/svg">
<path d="M18.9567 18.4313C18.709 18.3077 18.6099 18.2088 18.6099 18.1346C18.6099 18.1099 18.6099 18.1099 18.6099 18.0851L17.9413 11.7548C17.9413 8.02085 15.8857 5.05349 12.7652 4.13856C12.9138 3.81709 13.0129 3.4709 13.0129 3.09998C13.0129 1.76466 11.9232 0.676636 10.6106 0.676636C9.27323 0.676636 8.18352 1.76466 8.18352 3.09998C8.18352 3.4709 8.25782 3.81709 8.43118 4.13856C5.31068 5.05349 3.2551 8.02085 3.2551 11.7548L2.58644 18.1099C2.58644 18.1346 2.58644 18.1346 2.58644 18.1593C2.58644 18.2088 2.41308 18.3324 2.31402 18.4066L2.23971 18.4808C1.74439 18.8517 0.902344 19.6677 0.902344 20.9041C0.902344 21.9674 1.76917 22.8082 2.80933 22.8082H7.26719C7.51485 24.4155 8.92651 25.6766 10.6106 25.6766C12.2947 25.6766 13.7063 24.4402 13.954 22.8082H18.4118C19.4768 22.8082 20.3188 21.9427 20.3188 20.8794C20.294 20.0139 19.873 18.9259 18.9567 18.4313ZM10.561 24.6381C9.44657 24.6381 8.53025 23.8715 8.28259 22.8329H12.8395C12.6166 23.8468 11.6755 24.6381 10.561 24.6381ZM18.387 21.7696H2.75978C2.28923 21.7696 1.89298 21.374 1.89298 20.8794C1.89298 20.1376 2.46261 19.5688 2.80933 19.3215L2.88361 19.2721C3.00744 19.1979 3.13127 19.0743 3.2551 18.9506H8.92649C9.22368 18.9506 9.44657 18.7033 9.44657 18.4313C9.44657 18.1346 9.19892 17.912 8.92649 17.912H3.60183L4.22098 11.8784C4.22098 11.8537 4.22098 11.8537 4.22098 11.829C4.22098 8.29285 6.27654 5.57277 9.32274 5.02876C9.52087 5.00403 9.66948 4.85566 9.74378 4.65784C9.79331 4.46001 9.74376 4.26219 9.59516 4.11383C9.32274 3.86655 9.17415 3.49563 9.17415 3.12471C9.17415 2.38287 9.7933 1.76467 10.5363 1.76467C11.2793 1.76467 11.8984 2.38287 11.8984 3.12471C11.8984 3.49563 11.7498 3.86655 11.4774 4.11383C11.3288 4.26219 11.2792 4.46001 11.3288 4.65784C11.3783 4.85566 11.5517 5.00403 11.7498 5.02876C14.796 5.54805 16.8516 8.29285 16.8516 11.829C16.8516 11.8537 16.8516 11.8537 16.8516 11.8784L17.5202 18.2088C17.545 18.9012 18.1642 19.2474 18.4118 19.3957C19.0062 19.7172 19.2043 20.4838 19.2043 20.9536C19.2539 21.374 18.8576 21.7696 18.387 21.7696Z" fill="#57C225"/>
<path d="M12.2202 17.8873H10.7838C10.4866 17.8873 10.2637 18.1346 10.2637 18.4066C10.2637 18.7034 10.5113 18.9259 10.7838 18.9259H12.2202C12.5174 18.9259 12.7403 18.6786 12.7403 18.4066C12.7403 18.1099 12.5174 17.8873 12.2202 17.8873Z" fill="#57C225"/>
</svg>
