<svg width="35" height="24" viewBox="0 0 35 24" fill="none" xmlns="http://www.w3.org/2000/svg">
<path d="M23.6791 13.2092C21.5053 13.2092 19.5488 11.9999 18.5861 10.0774C18.1824 9.27123 17.9961 8.403 17.9961 7.50377C17.9961 4.372 20.5426 1.79837 23.7102 1.79837C26.8468 1.79837 29.4243 4.34099 29.4243 7.50377C29.4243 8.403 29.2069 9.27123 28.8343 10.0774C27.8095 11.9999 25.853 13.2092 23.6791 13.2092Z" fill="#00AF54"/>
<path d="M34.1764 24C33.8658 24 33.5863 23.783 33.5242 23.4419C32.6857 18.8218 30.3255 16.9613 28.369 15.845C25.3567 14.1396 21.599 14.2637 18.5556 16.1241C16.7544 17.2404 14.7979 18.9768 13.9594 23.4419C13.8973 23.814 13.5557 24.0311 13.183 23.969C12.8103 23.907 12.5929 23.5659 12.6551 23.1938C13.5867 18.2326 15.7916 16.2791 17.8413 15.0078C21.2884 12.8683 25.574 12.7443 29.0212 14.6978C32.313 16.5582 34.1142 19.1939 34.8285 23.1938C34.8906 23.5659 34.6422 23.907 34.3006 23.969C34.2695 24 34.2385 24 34.1764 24Z" fill="#00AF54"/>
<path d="M23.8452 14.0834C16.6082 14.0834 13.7741 20.677 13.2617 23.9737H34.2483C33.796 20.677 31.0822 14.0834 23.8452 14.0834Z" fill="#00AF54"/>
<path d="M16.6925 13.3023C16.6304 13.3023 16.5683 13.3023 16.5062 13.2713L11.8479 11.8759H2.96608C1.3512 11.8759 0.046875 10.5736 0.046875 8.96121V2.91471C0.046875 1.30231 1.3512 0 2.96608 0H12.7795C14.3944 0 15.6987 1.30231 15.6987 2.91471V8.4651L17.2515 12.31C17.3136 12.4031 17.3447 12.5271 17.3447 12.6511C17.3757 12.9922 17.0651 13.3023 16.6925 13.3023Z" fill="#00AF54"/>
</svg>
