<svg width="36" height="25" viewBox="0 0 36 25" fill="none" xmlns="http://www.w3.org/2000/svg">
<path d="M23.852 13.3124C21.6781 13.3124 19.7217 12.1031 18.759 10.1806C18.3553 9.37441 18.1689 8.50618 18.1689 7.60695C18.1689 4.47518 20.7155 1.90155 23.8831 1.90155C27.0196 1.90155 29.5972 4.44417 29.5972 7.60695C29.5972 8.50618 29.3798 9.37441 29.0071 10.1806C27.9823 12.1031 26.0258 13.3124 23.852 13.3124ZM23.852 3.23488C21.4297 3.23488 19.4733 5.18835 19.4733 7.60695C19.4733 8.28912 19.6285 8.9713 19.9391 9.59145C20.6844 11.0798 22.175 12.01 23.852 12.01C25.529 12.01 27.0196 11.0798 27.7649 9.59145C28.0755 8.9713 28.2308 8.32013 28.2308 7.60695C28.2618 5.18835 26.2743 3.23488 23.852 3.23488Z" fill="#57C225"/>
<path d="M34.3492 24.1032C34.0387 24.1032 33.7592 23.8861 33.697 23.5451C32.8586 18.9249 30.4984 17.0645 28.5419 15.9482C25.5295 14.2428 21.7718 14.3668 18.7284 16.2273C16.9272 17.3435 14.9707 19.08 14.1322 23.5451C14.0701 23.9171 13.7285 24.1342 13.3559 24.0722C12.9832 24.0102 12.7658 23.6691 12.8279 23.297C13.7596 18.3358 15.9645 16.3823 18.0141 15.111C21.4613 12.9715 25.7469 12.8474 29.194 14.8009C32.4859 16.6614 34.2871 19.297 35.0014 23.297C35.0635 23.6691 34.815 24.0102 34.4734 24.0722C34.4424 24.1032 34.4113 24.1032 34.3492 24.1032Z" fill="#57C225"/>
<path d="M16.8653 13.4054C16.8032 13.4054 16.7411 13.4054 16.679 13.3744L12.0207 11.9791H3.13893C1.52405 11.9791 0.219727 10.6768 0.219727 9.06436V3.01786C0.219727 1.40546 1.52405 0.103149 3.13893 0.103149H12.9524C14.5673 0.103149 15.8716 1.40546 15.8716 3.01786V8.56825L17.4243 12.4132C17.4865 12.5062 17.5175 12.6303 17.5175 12.7543C17.5486 13.0954 17.238 13.4054 16.8653 13.4054ZM3.13893 1.40546C2.23833 1.40546 1.52405 2.11864 1.52405 3.01786V9.06436C1.52405 9.96358 2.23833 10.6768 3.13893 10.6768H12.1139C12.176 10.6768 12.2381 10.6768 12.3002 10.7078L15.7163 11.731L14.5983 8.94034C14.5673 8.84732 14.5362 8.78529 14.5362 8.69226V3.01786C14.5362 2.11864 13.8219 1.40546 12.9213 1.40546H3.13893Z" fill="#57C225"/>
</svg>
