<svg width="20" height="25" viewBox="0 0 20 25" fill="none" xmlns="http://www.w3.org/2000/svg">
<path d="M18.1012 17.7547C17.8535 17.6311 17.7545 17.5321 17.7545 17.458C17.7545 17.4332 17.7545 17.4332 17.7545 17.4085L17.0858 11.0781C17.0858 7.34421 15.0302 4.37686 11.9097 3.46192C12.0583 3.14046 12.1574 2.79426 12.1574 2.42334C12.1574 1.08803 11.0677 0 9.75512 0C8.41776 0 7.32805 1.08803 7.32805 2.42334C7.32805 2.79426 7.40235 3.14046 7.57571 3.46192C4.45521 4.37686 2.39963 7.34421 2.39963 11.0781L1.73097 17.4332C1.73097 17.458 1.73097 17.458 1.73097 17.4827C1.73097 17.5321 1.55761 17.6558 1.45855 17.73L1.38424 17.8042C0.888921 18.1751 0.046875 18.9911 0.046875 20.2275C0.046875 21.2908 0.913699 22.1316 1.95387 22.1316H6.41172C6.65938 23.7389 8.07104 25 9.75512 25C11.4392 25 12.8509 23.7636 13.0985 22.1316H17.5564C18.6213 22.1316 19.4633 21.2661 19.4633 20.2028C19.4386 19.3373 19.0175 18.2493 18.1012 17.7547ZM9.70557 23.9614C8.5911 23.9614 7.67478 23.1949 7.42712 22.1563H11.984C11.7612 23.1701 10.82 23.9614 9.70557 23.9614Z" fill="#00AF54"/>
<path d="M11.3647 17.2107H9.92829C9.63109 17.2107 9.4082 17.458 9.4082 17.73C9.4082 18.0268 9.65586 18.2493 9.92829 18.2493H11.3647C11.6619 18.2493 11.8848 18.002 11.8848 17.73C11.8848 17.4333 11.6619 17.2107 11.3647 17.2107Z" fill="#00AF54"/>
</svg>
