<svg width="26" height="25" viewBox="0 0 26 25" fill="none" xmlns="http://www.w3.org/2000/svg">
<path d="M13.9537 1.17451C13.4537 0.774512 12.7537 0.774512 12.2537 1.17451L1.25372 11.2745C0.853718 11.6745 1.15372 12.3745 1.65372 12.3745H3.45372V22.6745C3.45372 23.2745 3.95372 23.8745 4.65372 23.8745H21.5537C22.1537 23.8745 22.7537 23.3745 22.7537 22.6745V12.3745H24.5537C25.1537 12.3745 25.3537 11.6745 24.9537 11.2745L13.9537 1.17451ZM15.7537 17.1745C15.7537 17.4745 15.4537 17.7745 15.1537 17.7745H11.0537C10.7537 17.7745 10.4537 17.4745 10.4537 17.1745V13.0745C10.4537 12.7745 10.7537 12.4745 11.0537 12.4745H15.1537C15.4537 12.4745 15.7537 12.7745 15.7537 13.0745V17.1745Z" stroke="#57C225" stroke-miterlimit="10" stroke-linecap="round" stroke-linejoin="round"/>
</svg>
