<svg width="20" height="25" viewBox="0 0 20 25" fill="none" xmlns="http://www.w3.org/2000/svg">
<path d="M1.04688 20.3232V19.3232V3.32324C1.04688 2.22324 1.94687 1.32324 3.04688 1.32324H18.0469C18.6469 1.32324 19.0469 1.72324 19.0469 2.32324V19.8232C19.0469 20.1232 18.8469 20.3232 18.5469 20.3232H3.04688" stroke="#57C225" stroke-width="1.2" stroke-miterlimit="10" stroke-linecap="round" stroke-linejoin="round"/>
<path d="M1.04688 19.3232V22.3232" stroke="#57C225" stroke-width="1.2" stroke-miterlimit="10" stroke-linecap="round" stroke-linejoin="round"/>
<path d="M3.04688 24.3232C1.94687 24.3232 1.04688 23.4232 1.04688 22.3232C1.04688 21.2232 1.94687 20.3232 3.04688 20.3232" stroke="#57C225" stroke-width="1.2" stroke-miterlimit="10" stroke-linecap="round" stroke-linejoin="round"/>
<path d="M18.5469 24.3232C17.4469 24.3232 16.5469 23.4232 16.5469 22.3232C16.5469 21.2232 17.4469 20.3232 18.5469 20.3232" stroke="#57C225" stroke-width="1.2" stroke-miterlimit="10" stroke-linecap="round" stroke-linejoin="round"/>
<path d="M3.04688 24.3232H18.5469" stroke="#57C225" stroke-width="1.2" stroke-miterlimit="10" stroke-linecap="round" stroke-linejoin="round"/>
<path d="M9.74609 7.30884V13.3088" stroke="#57C225" stroke-width="1.2" stroke-miterlimit="10" stroke-linecap="round" stroke-linejoin="round"/>
<path d="M6.74609 10.3088H12.7461" stroke="#57C225" stroke-width="1.2" stroke-miterlimit="10" stroke-linecap="round" stroke-linejoin="round"/>
</svg>
